<?xml version="1.0" encoding="UTF-8"?>
<svg xmlns="http://www.w3.org/2000/svg" width="1254" height="1254" viewBox="0 0 1254 1254" role="img" aria-label="forklift icon">
  <path d="M 260 299 L 257 317 L 246 624 L 243 766 L 290 767 L 304 770 L 325 779 L 338 788 L 352 802 L 361 815 L 372 840 L 377 867 L 377 916 L 383 924 L 606 925 L 595 897 L 592 879 L 592 860 L 599 828 L 613 801 L 636 776 L 653 764 L 665 758 L 693 749 L 727 747 L 730 754 L 754 760 L 773 770 L 788 782 L 807 805 L 816 822 L 819 832 L 820 806 L 834 806 L 834 913 L 839 930 L 850 939 L 858 941 L 1100 939 L 1158 936 L 1168 932 L 1168 929 L 1163 926 L 1124 923 L 869 921 L 863 917 L 863 903 L 1113 900 L 1145 897 L 1150 894 L 1150 891 L 1144 888 L 1098 885 L 867 883 L 863 880 L 862 661 L 857 656 L 839 656 L 834 663 L 834 778 L 820 778 L 820 284 L 817 279 L 812 277 L 758 277 L 754 278 L 750 282 L 748 288 L 738 287 L 725 290 L 719 295 L 715 303 L 715 314 L 719 322 L 729 329 L 738 331 L 737 733 L 728 733 L 726 731 L 715 685 L 681 562 L 625 373 L 611 342 L 592 319 L 581 310 L 564 300 L 548 294 L 526 290 L 275 289 L 267 292 Z M 302 329 L 310 325 L 525 325 L 545 330 L 560 338 L 578 355 L 583 362 L 591 378 L 611 441 L 666 632 L 660 635 L 591 549 L 583 548 L 575 554 L 570 549 L 570 532 L 594 513 L 599 507 L 599 502 L 594 497 L 586 498 L 508 562 L 504 567 L 504 573 L 508 577 L 515 577 L 539 557 L 555 556 L 562 564 L 555 572 L 556 581 L 621 669 L 622 674 L 607 758 L 605 760 L 516 761 L 514 759 L 513 693 L 509 684 L 500 675 L 492 671 L 481 669 L 296 664 L 286 657 L 282 648 L 293 352 L 295 338 Z M 699 768 L 674 774 L 658 782 L 648 789 L 632 805 L 622 820 L 613 842 L 610 858 L 610 880 L 615 902 L 625 923 L 633 934 L 651 951 L 670 962 L 685 967 L 705 970 L 724 969 L 746 963 L 762 955 L 772 948 L 787 933 L 799 914 L 805 899 L 809 880 L 809 857 L 804 835 L 795 816 L 784 801 L 771 789 L 761 782 L 736 771 L 720 768 Z M 147 783 L 145 788 L 146 893 L 149 902 L 157 910 L 165 913 L 180 913 L 178 904 L 178 890 L 182 871 L 194 848 L 207 834 L 218 826 L 231 820 L 246 816 L 263 815 L 278 817 L 290 821 L 311 834 L 323 847 L 334 867 L 339 886 L 338 913 L 364 913 L 363 861 L 357 837 L 350 822 L 340 808 L 331 799 L 317 789 L 306 784 L 287 779 L 152 779 Z M 251 830 L 236 834 L 224 840 L 206 857 L 195 880 L 193 904 L 196 919 L 202 932 L 217 950 L 225 956 L 241 963 L 250 965 L 270 965 L 285 961 L 302 951 L 316 936 L 326 913 L 327 886 L 318 862 L 302 844 L 291 837 L 269 830 Z M 319 489 L 314 496 L 314 507 L 337 640 L 340 647 L 346 654 L 350 656 L 474 660 L 483 659 L 489 654 L 491 649 L 491 638 L 482 626 L 473 622 L 428 618 L 388 618 L 373 620 L 372 618 L 377 603 L 376 587 L 357 509 L 351 498 L 342 490 L 334 487 L 324 487 Z M 239 633 L 183 633 L 170 637 L 159 647 L 155 655 L 153 665 L 151 766 L 235 766 Z M 702 816 L 722 817 L 738 824 L 755 842 L 762 863 L 760 884 L 751 901 L 735 915 L 717 921 L 701 921 L 693 919 L 678 911 L 667 900 L 662 892 L 657 875 L 659 853 L 668 836 L 686 821 Z M 765 330 L 775 331 L 774 733 L 764 732 Z M 257 866 L 268 867 L 277 871 L 287 881 L 291 891 L 291 905 L 285 917 L 276 925 L 264 929 L 252 928 L 240 922 L 233 914 L 229 904 L 229 892 L 234 880 L 243 871 Z M 706 841 L 699 843 L 690 849 L 684 858 L 682 871 L 686 883 L 692 890 L 701 895 L 713 896 L 724 892 L 731 886 L 736 877 L 737 865 L 733 854 L 725 846 L 717 842 Z" fill="#000000" fill-rule="evenodd"/>
</svg>
