<?xml version="1.0" encoding="UTF-8"?>
<svg xmlns="http://www.w3.org/2000/svg" width="1254" height="1254" viewBox="0 0 1254 1254" role="img" aria-label="kroenje kantiranje icon">
  <path d="M 972 425 L 965 430 L 960 439 L 960 819 L 962 823 L 969 828 L 1128 828 L 1137 821 L 1139 815 L 1138 438 L 1135 432 L 1124 424 Z M 758 353 L 754 356 L 752 364 L 755 369 L 763 373 L 763 384 L 761 386 L 736 386 L 733 387 L 727 395 L 727 557 L 733 565 L 827 566 L 833 561 L 835 408 L 851 408 L 854 409 L 859 415 L 859 451 L 845 452 L 844 459 L 902 460 L 938 464 L 929 466 L 844 466 L 844 544 L 915 545 L 915 736 L 913 738 L 853 739 L 763 813 L 951 813 L 951 453 L 876 452 L 875 413 L 873 406 L 868 399 L 858 393 L 834 392 L 826 386 L 785 386 L 783 384 L 783 373 L 793 367 L 793 357 L 788 353 L 777 351 Z M 905 614 L 825 614 L 819 624 L 809 629 L 817 644 L 820 654 L 820 671 L 815 687 L 809 696 L 797 707 L 788 712 L 774 716 L 756 715 L 740 708 L 726 695 L 718 680 L 715 664 L 717 649 L 724 634 L 737 621 L 735 614 L 633 614 L 576 655 L 574 672 L 569 677 L 567 685 L 562 690 L 557 690 L 550 701 L 543 705 L 536 702 L 527 708 L 519 708 L 515 705 L 514 702 L 512 702 L 397 785 L 395 788 L 715 788 L 904 638 Z M 103 667 L 103 677 L 109 688 L 120 698 L 138 708 L 153 714 L 183 722 L 229 728 L 287 727 L 316 723 L 345 716 L 364 709 L 384 698 L 397 686 L 402 674 L 401 665 L 397 657 L 384 645 L 363 634 L 327 623 L 272 616 L 218 617 L 188 621 L 162 627 L 135 637 L 118 647 L 109 655 Z M 453 397 L 448 404 L 448 552 L 450 556 L 457 561 L 589 560 L 595 552 L 594 401 L 586 395 L 457 395 Z M 997 490 L 1007 486 L 1103 486 L 1110 489 L 1116 494 L 1120 502 L 1120 631 L 1117 638 L 1110 645 L 1101 648 L 1007 648 L 999 645 L 992 638 L 989 631 L 989 502 L 991 497 Z M 1004 497 L 1000 501 L 998 506 L 998 629 L 1000 633 L 1008 638 L 1102 638 L 1106 636 L 1111 629 L 1111 505 L 1108 499 L 1103 496 Z M 102 723 L 107 735 L 117 745 L 140 758 L 156 764 L 188 772 L 217 776 L 280 777 L 413 763 L 499 701 L 495 697 L 493 697 L 455 716 L 418 724 L 302 736 L 239 738 L 197 734 L 157 725 L 140 719 L 122 710 L 103 694 Z M 385 800 L 385 836 L 388 839 L 710 839 L 712 837 L 712 798 L 386 798 Z M 152 667 L 155 661 L 165 652 L 194 641 L 234 635 L 271 635 L 307 640 L 332 648 L 341 653 L 351 663 L 353 674 L 350 680 L 338 690 L 311 700 L 270 706 L 234 706 L 193 700 L 172 693 L 156 682 L 152 675 Z M 604 453 L 605 544 L 718 544 L 719 455 L 717 452 Z M 161 669 L 162 675 L 167 680 L 179 686 L 205 693 L 243 697 L 279 696 L 310 691 L 336 681 L 342 676 L 344 672 L 342 666 L 338 662 L 319 653 L 293 647 L 258 644 L 228 645 L 193 651 L 170 660 Z M 905 648 L 722 794 L 722 834 L 905 687 Z M 763 619 L 745 625 L 732 637 L 725 652 L 724 668 L 729 684 L 741 698 L 757 706 L 774 707 L 790 701 L 804 688 L 811 671 L 811 654 L 806 641 L 793 627 L 778 620 Z M 1014 519 L 1018 515 L 1091 515 L 1095 520 L 1094 575 L 1091 578 L 1086 579 L 1017 578 L 1014 574 Z M 543 600 L 541 603 L 538 625 L 534 633 L 539 644 L 538 652 L 536 656 L 528 663 L 522 664 L 517 662 L 509 652 L 508 643 L 512 634 L 507 624 L 505 606 L 501 608 L 499 601 L 491 606 L 491 617 L 488 620 L 483 618 L 479 624 L 478 631 L 483 633 L 477 643 L 476 652 L 477 654 L 479 654 L 484 651 L 486 654 L 482 664 L 483 675 L 486 680 L 489 681 L 492 668 L 498 679 L 499 689 L 504 695 L 508 695 L 508 686 L 521 693 L 519 697 L 521 700 L 530 698 L 537 690 L 542 696 L 544 696 L 550 688 L 551 681 L 555 678 L 559 682 L 566 670 L 566 664 L 563 661 L 563 657 L 570 648 L 570 638 L 563 636 L 565 623 L 562 616 L 559 614 L 555 618 L 551 613 L 550 605 Z M 820 572 L 811 575 L 758 576 L 743 574 L 742 611 L 744 615 L 757 611 L 772 610 L 788 614 L 801 623 L 809 622 L 816 617 L 820 610 Z M 492 570 L 492 591 L 496 594 L 502 592 L 504 589 L 509 590 L 511 616 L 515 635 L 515 649 L 519 654 L 526 654 L 530 649 L 529 636 L 533 624 L 536 590 L 540 588 L 541 592 L 551 595 L 554 588 L 554 571 Z M 763 644 L 773 644 L 779 647 L 784 652 L 787 659 L 787 667 L 785 672 L 780 678 L 772 682 L 763 682 L 758 680 L 751 673 L 749 668 L 749 658 L 751 653 L 758 646 Z M 491 380 L 492 384 L 495 386 L 514 390 L 531 390 L 543 388 L 552 384 L 553 382 L 551 377 L 535 372 L 504 373 L 495 376 Z M 608 465 L 612 462 L 636 459 L 688 459 L 708 461 L 715 464 L 713 466 Z M 414 700 L 412 698 L 396 699 L 377 712 L 358 721 L 414 715 Z M 1084 598 L 1092 599 L 1097 606 L 1096 612 L 1088 618 L 1080 615 L 1077 610 L 1078 603 Z M 1051 598 L 1057 598 L 1064 604 L 1063 613 L 1055 618 L 1049 616 L 1045 611 L 1045 604 Z M 1019 598 L 1027 599 L 1032 605 L 1032 610 L 1026 617 L 1018 617 L 1013 612 L 1013 603 Z M 766 653 L 759 658 L 758 665 L 762 671 L 771 672 L 777 666 L 777 659 L 772 654 Z M 808 586 L 810 589 L 810 604 L 808 612 L 805 610 L 805 589 Z" fill="#000000" fill-rule="evenodd"/>
</svg>
